<svg fill="none" xmlns="http://www.w3.org/2000/svg" viewBox="0 0 24 24"><g clip-path="url(#clip0_3757_46785)"><path d="M24 12C24 18.6274 18.6274 24 12 24C5.37258 24 0 18.6274 0 12C0 5.37258 5.37258 0 12 0C18.6274 0 24 5.37258 24 12Z" fill="#F0B90B"/><path d="M8.64001 10.6187L12.0016 7.25848L15.3644 10.6214L17.3192 8.66522L12.0016 3.34613L6.68384 8.66388L8.64001 10.6187Z" fill="#1E2026"/><path d="M3.34619 12.0004L5.30164 10.045L7.2572 12.0004L5.30164 13.9559L3.34619 12.0004Z" fill="#1E2026"/><path d="M12.0016 16.7429L8.64014 13.3813L6.68115 15.3348L12.0016 20.6539L17.3207 15.3334L15.3645 13.3799L12.0016 16.7429Z" fill="#1E2026"/><path d="M16.7427 12.0008L18.6981 10.0453L20.6537 12.0008L18.6981 13.9562L16.7427 12.0008Z" fill="#1E2026"/><path d="M12.0016 10.0145L13.9865 11.9993L13.9851 12.0008L12.0016 13.9857L10.0179 12.0035L10.0153 11.9993L10.3652 11.6495L10.5347 11.4813L12.0016 10.0145Z" fill="#1E2026"/></g><defs><clipPath id="clip0_3757_46785"><rect width="24" height="24" fill="white"/></clipPath></defs></svg>