<svg fill="none" xmlns="http://www.w3.org/2000/svg" viewBox="0 0 24 24"><g clip-path="url(#clip0_5050_73860)"><path d="M17.5739 2.1115C16.9492 2.72906 16.377 3.3984 15.8683 4.11211L15.7075 4.06034C14.7799 3.7608 13.8186 3.5759 12.8499 3.51304C12.5581 3.49085 11.4697 3.49085 11.1143 3.51304C10.0409 3.5833 9.218 3.74231 8.28292 4.06404C8.24552 4.07883 8.21186 4.08993 8.17819 4.10102C7.65081 3.391 7.06358 2.72537 6.4165 2.1152C9.52097 0.543547 13.1528 0.354949 16.4032 1.59378C16.751 1.72321 17.0914 1.87483 17.4243 2.03754L17.5739 2.1115Z" fill="#F00500"/><path d="M23.3638 16.138C22.8925 17.4656 22.1856 18.697 21.2692 19.7695C20.7718 20.3463 20.2219 20.8752 19.631 21.3559C18.2471 22.4579 16.6312 23.2456 14.907 23.6598C12.9994 24.1146 11.0095 24.1146 9.10198 23.6598C7.37395 23.2456 5.76188 22.4579 4.37796 21.3559C3.78699 20.8752 3.23716 20.3463 2.7397 19.7695C0.102773 16.689 -0.697656 12.4585 0.645119 8.64589C0.89946 7.93957 1.21739 7.25914 1.5989 6.61199C1.77469 6.31615 1.99164 5.98333 2.09636 5.8465C2.45543 7.37378 2.89679 8.71615 3.06136 9.20059C3.05014 9.22647 3.03518 9.25606 3.02022 9.28194C2.14873 11.0274 1.67745 12.71 1.56524 14.4998C1.56524 14.522 1.5615 14.5479 1.5615 14.5701C1.53157 15.1063 1.54654 15.3614 1.6363 15.698C1.91683 16.7519 2.78084 17.9131 4.13484 19.0521C6.35285 20.9158 9.36006 22.2619 11.6379 22.4172C14.013 22.5762 17.5177 21.2043 19.8517 19.2C20.2182 18.8782 20.5623 18.538 20.884 18.1756C21.1159 17.9094 21.46 17.4508 21.4338 17.4508C21.4263 17.4508 21.4338 17.4434 21.4488 17.436C21.46 17.4286 21.4712 17.4175 21.4637 17.4101C21.46 17.4064 21.4675 17.3953 21.4787 17.3916C21.4899 17.388 21.4974 17.3806 21.4937 17.3732C21.4899 17.3658 21.4937 17.3584 21.5086 17.3547C21.5198 17.351 21.5236 17.3399 21.5198 17.3325C21.5161 17.3251 21.5198 17.3177 21.5273 17.3177C21.5348 17.3177 21.5423 17.3066 21.5423 17.2992C21.5423 17.2918 21.5498 17.2807 21.5572 17.2807C21.5647 17.2807 21.5722 17.2733 21.5722 17.2659C21.5834 17.2363 21.6021 17.2067 21.6208 17.1809C21.6769 17.0958 21.9013 16.7001 21.9313 16.6336C22.1445 16.1565 22.2791 15.7313 22.3427 15.306C22.3726 15.1026 22.3913 14.7291 22.3764 14.6403C22.3726 14.6255 22.3726 14.5997 22.3689 14.559C22.3614 14.485 22.3577 14.3741 22.3502 14.2631C22.3427 14.0967 22.3277 13.8638 22.3165 13.7491C22.1557 12.0702 21.7218 10.6983 20.8989 9.24496C20.8653 9.18949 20.8354 9.13402 20.8167 9.08965C20.8092 9.07855 20.8054 9.06746 20.8017 9.06006C20.9176 8.71615 21.3927 7.27763 21.7704 5.63202L21.7779 5.63942L21.834 5.71338C21.9313 5.84281 22.1894 6.2274 22.3053 6.4123C22.8327 7.26284 23.2441 8.17624 23.5359 9.13032C24.2129 11.4268 24.1568 13.8749 23.3638 16.138Z" fill="#F00500"/><path d="M18.5086 11.7189C18.4974 11.778 18.3216 11.9555 18.1458 12.085C17.6297 12.4585 16.7058 12.8061 15.767 12.9725C15.2321 13.0686 14.6973 13.0834 14.5364 13.0058C14.4317 12.954 14.4167 12.9133 14.4541 12.7802C14.5327 12.5029 14.787 12.1996 15.1835 11.9149C15.3855 11.7706 16.2046 11.2788 16.5861 11.0717C17.2145 10.7315 17.7232 10.5281 18.0673 10.48C18.1758 10.4653 18.3067 10.4616 18.3478 10.48C18.4151 10.5059 18.4899 10.7019 18.5199 10.9386C18.5348 11.0643 18.5273 11.619 18.5086 11.7189Z" fill="black"/><path d="M9.69656 12.9429C9.67412 12.9873 9.56191 13.0354 9.43474 13.0538C9.30757 13.0723 8.91858 13.0612 8.6979 13.0354C7.90495 12.9318 7.06338 12.6914 6.44997 12.3956C6.10586 12.2292 5.859 12.0628 5.67572 11.8816L5.57099 11.7743L5.55977 11.6338C5.54107 11.3897 5.54481 11.0052 5.57473 10.8683C5.59343 10.7537 5.63458 10.6427 5.69068 10.5429C5.7206 10.5059 5.72061 10.5059 5.85526 10.5059C6.01983 10.5059 6.15822 10.5318 6.38264 10.6021C6.8427 10.7426 7.52718 11.0828 8.36127 11.5783C9.04949 11.9851 9.30757 12.1848 9.50581 12.4585C9.64046 12.6286 9.73023 12.8689 9.69656 12.9429Z" fill="black"/><path d="M14.9931 18.0905C14.9931 18.1016 14.9482 18.2791 14.8921 18.4899C14.836 18.7007 14.7911 18.8708 14.7911 18.8782C14.75 18.8819 14.7126 18.8856 14.6714 18.8819H14.5517L14.3872 19.2665C14.2974 19.4773 14.2151 19.6733 14.2039 19.7028L14.1814 19.7546L14.1029 19.6289L14.0244 19.5032V18.4788L13.9944 18.4862C13.9308 18.501 13.4783 18.5602 13.28 18.5787C12.4609 18.66 11.638 18.6415 10.8226 18.5269C10.6917 18.5084 10.5795 18.4936 10.5758 18.4973C10.572 18.501 10.5758 18.7377 10.5833 19.0298L10.5945 19.5549L10.5309 19.6511C10.4972 19.7029 10.4636 19.7472 10.4636 19.7509C10.4523 19.762 10.4149 19.7028 10.3289 19.5327C10.2354 19.3552 10.1681 19.1666 10.1195 18.9706L10.0933 18.8634L9.97733 18.8708L9.86138 18.8819L9.83145 18.7451C9.81649 18.6711 9.79779 18.5565 9.79031 18.4936L9.77909 18.3753L9.68184 18.2902C9.62573 18.2421 9.56963 18.1941 9.55841 18.1867C9.53971 18.1719 9.53223 18.146 9.53223 18.1238V18.0794L9.99977 18.0831L10.4673 18.0868L10.4823 18.1349L10.4972 18.183L10.6581 18.1904C10.7478 18.1941 11.0321 18.2015 11.2864 18.2089L11.754 18.22L11.8737 18.0351L11.9971 17.8502H12.1542L12.1505 17.4656L12.1467 17.081L11.941 16.9922C11.279 16.7038 10.89 16.3747 10.7441 15.9753C10.7142 15.8939 10.7142 15.8643 10.7067 15.4945C10.7029 15.1284 10.7029 15.0951 10.7291 15.0138C10.7815 14.8289 10.9274 14.6847 11.1144 14.6366C11.178 14.6181 11.3463 14.6181 12.229 14.6181L13.2688 14.6218L13.3848 14.6773C13.5231 14.7438 13.5867 14.7919 13.6653 14.8955C13.755 15.0138 13.7812 15.1062 13.7812 15.3318C13.7812 15.6535 13.7588 15.9309 13.7251 16.0418C13.6765 16.1934 13.6017 16.3377 13.5082 16.4671C13.3212 16.7038 12.9808 16.9404 12.6704 17.0477L12.5806 17.081L12.5843 17.4693L12.5881 17.8575L12.6704 17.8649L12.7526 17.8723L12.8649 18.0388L12.9733 18.2052H13.4745C13.7513 18.2052 13.9944 18.2089 14.0169 18.2126C14.0543 18.22 14.0618 18.2163 14.0992 18.1534L14.144 18.0868H14.5742C14.8958 18.072 14.9931 18.0794 14.9931 18.0905Z" fill="black"/><path d="M13.0181 19.1519C12.9471 19.1925 12.8984 19.211 12.8872 19.2036C12.876 19.1999 12.8236 19.1556 12.7675 19.1149L12.6665 19.0335L12.5618 19.1445C12.3337 19.3885 12.3262 19.3996 12.2588 19.4033C12.1541 19.4144 12.1317 19.3959 12.0045 19.2073C11.9372 19.1112 11.8848 19.0298 11.8848 19.0298C11.8848 19.0298 11.8362 19.0224 11.7801 19.0187L11.6754 19.0076L11.6267 19.1075L11.5781 19.2073L11.4921 19.1814C11.4248 19.1592 11.3574 19.1334 11.2939 19.1038L11.1816 19.0483V18.8375L12.1766 18.8412L13.1715 18.8449L13.1752 18.9448C13.179 19.0631 13.1827 19.0594 13.0181 19.1519Z" fill="black"/><path d="M22.3688 14.6403C22.365 14.6255 22.365 14.5996 22.3613 14.5589C21.4636 14.4628 18.9015 14.4036 16.5226 16.3451C16.5226 16.3451 15.7559 12.869 12.1652 12.869C8.57447 12.869 7.24291 16.3451 7.24291 16.3451C5.23062 14.2039 2.53759 14.3592 1.56511 14.4998C1.56511 14.522 1.56137 14.5478 1.56137 14.57C1.53145 15.1062 1.54641 15.3614 1.63617 15.6979C1.9167 16.7519 2.78071 17.913 4.13471 19.052C6.35272 20.9158 9.35993 22.2619 11.6378 22.4172C14.0129 22.5762 17.5176 21.2042 19.8515 19.1999C20.2181 18.8782 20.5622 18.538 20.8839 18.1756C21.1158 17.9093 21.4599 17.4508 21.4337 17.4508C21.4262 17.4508 21.4337 17.4434 21.4486 17.436C21.4599 17.4286 21.4711 17.4175 21.4636 17.4101C21.4599 17.4064 21.4673 17.3953 21.4786 17.3916C21.4898 17.3879 21.4973 17.3805 21.4935 17.3731C21.4898 17.3657 21.4935 17.3583 21.5085 17.3546C21.5197 17.3509 21.5234 17.3398 21.5197 17.3324C21.516 17.325 21.5197 17.3176 21.5272 17.3176C21.5347 17.3176 21.5422 17.3066 21.5422 17.2992C21.5422 17.2918 21.5496 17.2807 21.5571 17.2807C21.5646 17.2807 21.5721 17.2733 21.5721 17.2659C21.5833 17.2363 21.602 17.2067 21.6207 17.1808C21.6768 17.0958 21.9012 16.7001 21.9311 16.6335C22.1443 16.1565 22.279 15.7312 22.3426 15.3059C22.365 15.1025 22.3837 14.7291 22.3688 14.6403ZM13.018 19.1519C12.9469 19.1925 12.8983 19.211 12.8871 19.2036C12.8758 19.1999 12.8235 19.1556 12.7674 19.1149L12.6664 19.0335L12.5616 19.1445C12.3335 19.3885 12.326 19.3996 12.2587 19.4033C12.154 19.4144 12.1315 19.3959 12.0043 19.2073C11.937 19.1112 11.8846 19.0298 11.8846 19.0298C11.8846 19.0298 11.836 19.0224 11.7799 19.0187L11.6752 19.0076L11.6266 19.1075L11.5779 19.2073L11.4919 19.1814C11.4246 19.1593 11.3573 19.1334 11.2937 19.1038L11.1815 19.0483V18.8375L12.1764 18.8412L13.1713 18.8449L13.1751 18.9448C13.1788 19.0631 13.1825 19.0594 13.018 19.1519ZM14.8881 18.4862C14.832 18.697 14.7871 18.8671 14.7871 18.8745C14.746 18.8782 14.7086 18.8819 14.6674 18.8782H14.5478L14.3869 19.2665C14.2972 19.4773 14.2149 19.6733 14.2036 19.7029L14.1812 19.7546L14.1027 19.6289L14.0241 19.5032V18.4788L13.9942 18.4862C13.9306 18.501 13.478 18.5602 13.2798 18.5787C12.4607 18.66 11.6378 18.6415 10.8224 18.5269C10.6915 18.5084 10.5793 18.4936 10.5755 18.4973C10.5718 18.501 10.5755 18.7377 10.583 19.0298L10.5942 19.5549L10.5307 19.6511C10.497 19.7029 10.4633 19.7472 10.4633 19.7509C10.4521 19.762 10.4147 19.7029 10.3287 19.5327C10.2352 19.3552 10.1678 19.1666 10.1192 18.9707L10.093 18.8634L9.97709 18.8708L9.86114 18.8819L9.83121 18.7451C9.81625 18.6711 9.79755 18.5565 9.79007 18.4936L9.77885 18.3753L9.6816 18.2902C9.62549 18.2421 9.56939 18.1941 9.55817 18.1867C9.53947 18.1719 9.53199 18.146 9.53199 18.1238V18.0794L9.99953 18.0831L10.4671 18.0868L10.482 18.1349L10.497 18.183L10.6578 18.1904C10.7476 18.1941 11.0319 18.2015 11.2862 18.2089L11.7537 18.22L11.8734 18.0351L11.9969 17.8502H12.154L12.1502 17.4656L12.1465 17.081L11.9408 16.9922C11.2787 16.7038 10.8897 16.3747 10.7439 15.9753C10.7139 15.8939 10.7139 15.8643 10.7064 15.4945C10.7027 15.1284 10.7027 15.0952 10.7289 15.0138C10.7813 14.8289 10.9271 14.6847 11.1141 14.6366C11.1777 14.6181 11.346 14.6181 12.2288 14.6181L13.2686 14.6218L13.3845 14.6773C13.5229 14.7438 13.5865 14.7919 13.665 14.8955C13.7548 15.0138 13.781 15.1062 13.781 15.3318C13.781 15.6535 13.7586 15.9309 13.7249 16.0418C13.6763 16.1935 13.6015 16.3377 13.5079 16.4671C13.3209 16.7038 12.9806 16.9405 12.6701 17.0477L12.5803 17.081L12.5841 17.4693L12.5878 17.8576L12.6701 17.865L12.7524 17.8723L12.8646 18.0388L12.9731 18.2052H13.4743C13.7511 18.2052 13.9942 18.2089 14.0166 18.2126C14.054 18.22 14.0615 18.2163 14.0989 18.1534L14.1438 18.0868H14.5739C14.9068 18.0868 15.0041 18.0905 15.0041 18.1016C14.9929 18.0979 14.9442 18.2791 14.8881 18.4862Z" fill="white"/><path d="M22.3388 14.2631C22.3313 14.0967 22.3164 13.8637 22.3052 13.7491C22.1443 12.0702 21.7105 10.6982 20.8876 9.24491C20.8539 9.18944 20.824 9.13397 20.8053 9.08959C20.7978 9.0785 20.7941 9.06741 20.7903 9.06001C20.9063 8.7161 21.3813 7.27758 21.7591 5.63197C22.2715 3.39838 22.5969 0.787592 21.602 0.0036171C21.602 0.0036171 19.8814 -0.122115 17.5774 2.11148C16.9528 2.72904 16.3805 3.39838 15.8718 4.11209L15.711 4.06032C14.7834 3.76078 13.8221 3.57588 12.8534 3.51302C12.5616 3.49083 11.4732 3.49083 11.1179 3.51302C10.0444 3.58328 9.22153 3.74229 8.28645 4.06402C8.24905 4.07881 8.21538 4.0899 8.18172 4.101C7.65434 3.39098 7.06711 2.72534 6.42003 2.11517C4.02249 -0.129511 2.23836 -8.11201e-05 2.23836 -8.11201e-05C1.18359 0.80978 1.54266 3.5389 2.08874 5.84645C2.44781 7.37372 2.88917 8.7161 3.05374 9.20053C3.04252 9.22642 3.02756 9.25601 3.0126 9.28189C2.14111 11.0273 1.66983 12.7099 1.55762 14.4998C2.53384 14.3592 5.22313 14.2002 7.23916 16.3451C7.23916 16.3451 8.57072 12.8689 12.1614 12.8689C15.7521 12.8689 16.5189 16.3451 16.5189 16.3451C18.8977 14.4036 21.4599 14.4665 22.3575 14.5589C22.3538 14.485 22.3463 14.374 22.3388 14.2631ZM3.76067 7.80639C3.76067 7.80639 2.36178 4.34876 2.72086 2.37403C2.7807 2.04121 2.89291 1.74907 3.06871 1.52719C3.06871 1.52719 4.6546 1.68251 7.21298 4.49299C7.21298 4.49299 6.72674 4.72596 6.07592 5.22149C6.07592 5.22149 6.07218 5.22519 6.06844 5.22519C5.36152 5.7614 4.45637 6.61194 3.76067 7.80639ZM9.69655 12.9429C9.67411 12.9873 9.5619 13.0354 9.43473 13.0538C9.30756 13.0723 8.91857 13.0612 8.69789 13.0354C7.90494 12.9318 7.06337 12.6914 6.44996 12.3956C6.10585 12.2292 5.85898 12.0628 5.67571 11.8816L5.57098 11.7743L5.55976 11.6338C5.54106 11.3897 5.5448 11.0052 5.57472 10.8683C5.59342 10.7537 5.63457 10.6428 5.69067 10.5429C5.72059 10.5059 5.72059 10.5059 5.85524 10.5059C6.01982 10.5059 6.15821 10.5318 6.38263 10.6021C6.84269 10.7426 7.52717 11.0828 8.36126 11.5783C9.04948 11.9851 9.30756 12.1848 9.5058 12.4585C9.64045 12.6286 9.73021 12.8689 9.69655 12.9429ZM18.5087 11.7189C18.4975 11.778 18.3217 11.9555 18.1459 12.085C17.6298 12.4585 16.7059 12.8061 15.7671 12.9725C15.2322 13.0686 14.6974 13.0834 14.5365 13.0058C14.4318 12.954 14.4168 12.9133 14.4542 12.7802C14.5328 12.5028 14.7871 12.1996 15.1836 11.9149C15.3856 11.7706 16.2047 11.2788 16.5862 11.0717C17.2146 10.7315 17.7233 10.5281 18.0674 10.48C18.1759 10.4653 18.3068 10.4616 18.3479 10.48C18.4152 10.5059 18.49 10.7019 18.52 10.9386C18.5349 11.0643 18.5274 11.619 18.5087 11.7189ZM17.8879 5.22149L17.8804 5.21779C17.252 4.72226 16.7807 4.48929 16.7807 4.48929C19.2531 1.67881 20.7829 1.52349 20.7829 1.52349C20.9512 1.74907 21.0596 2.03752 21.1195 2.37034C21.4673 4.34507 20.1171 7.80639 20.1171 7.80639C19.5523 6.81163 18.793 5.93151 17.8879 5.22149Z" fill="#FFA409"/><path d="M21.1233 2.37034C20.8315 2.33336 19.4513 2.32596 17.8879 5.2215L17.8804 5.2178C17.252 4.72227 16.7808 4.48929 16.7808 4.48929C19.2531 1.67881 20.7829 1.5235 20.7829 1.5235C20.955 1.74908 21.0634 2.03752 21.1233 2.37034Z" fill="#FF9300"/><path d="M20.1207 7.80638C19.5521 6.80792 18.7966 5.93149 17.8877 5.22148C19.4511 2.32595 20.8276 2.33334 21.1231 2.37032C21.4709 4.34875 20.1207 7.80638 20.1207 7.80638Z" fill="#FF8300"/><path d="M21.1785 2.38145C21.16 2.37776 21.1415 2.37406 21.123 2.37036L21.1785 2.38145Z" fill="#FF8300"/><path d="M7.21315 4.48929C7.21315 4.48929 6.72691 4.72227 6.07609 5.2178C6.07609 5.2178 6.07235 5.2215 6.06861 5.2215C4.44905 2.32227 3.02399 2.33336 2.71729 2.37034C2.77713 2.03752 2.88934 1.74538 3.06514 1.5235C3.06888 1.5235 4.65477 1.67881 7.21315 4.48929Z" fill="#FF9300"/><path d="M6.07237 5.22148C5.36171 5.76139 4.45656 6.60823 3.76086 7.80638C3.76086 7.80638 2.36198 4.34875 2.72105 2.37032C3.02402 2.33334 4.45282 2.32595 6.07237 5.22148Z" fill="#FF8300"/><path d="M2.7203 2.37036C2.70181 2.37406 2.67962 2.37776 2.66113 2.38145L2.7203 2.37036Z" fill="#FF8300"/><path d="M16.3356 9.72566C16.3356 9.72566 15.1387 9.79962 15.2883 8.87512C15.4379 7.95062 16.373 7.83968 16.6348 7.87666C16.8967 7.91364 17.944 8.28344 17.7569 9.06002C17.5699 9.8366 17.3081 9.68868 17.1585 9.72566C17.0089 9.76264 16.3356 9.72566 16.3356 9.72566Z" fill="white"/><path d="M7.50847 9.72566C7.50847 9.72566 6.31157 9.79962 6.46118 8.87512C6.6108 7.95062 7.54588 7.83968 7.8077 7.87666C8.06952 7.91364 9.11681 8.28344 8.9298 9.06002C8.74278 9.8366 8.48096 9.68868 8.33134 9.72566C8.18173 9.76264 7.50847 9.72566 7.50847 9.72566Z" fill="white"/></g><defs><clipPath id="clip0_5050_73860"><rect width="24" height="24" fill="white"/></clipPath></defs></svg>